<mxfile host="65bd71144e">
    <diagram id="Vmrsdn_9Z2Ql2H_GY9RM" name="login">
        <mxGraphModel dx="873" dy="750" grid="1" gridSize="10" guides="1" tooltips="1" connect="1" arrows="1" fold="1" page="1" pageScale="1" pageWidth="827" pageHeight="1169" math="0" shadow="0">
            <root>
                <mxCell id="0"/>
                <mxCell id="1" parent="0"/>
                <mxCell id="2" value="Auth Service" style="shape=umlLifeline;perimeter=lifelinePerimeter;whiteSpace=wrap;html=1;container=1;collapsible=0;recursiveResize=0;outlineConnect=0;" vertex="1" parent="1">
                    <mxGeometry x="510" y="70" width="100" height="300" as="geometry"/>
                </mxCell>
                <mxCell id="3" value="" style="html=1;points=[];perimeter=orthogonalPerimeter;fillColor=#808080;" vertex="1" parent="2">
                    <mxGeometry x="45" y="90" width="10" height="120" as="geometry"/>
                </mxCell>
                <mxCell id="8" style="edgeStyle=none;html=1;" edge="1" parent="2" source="3" target="3">
                    <mxGeometry relative="1" as="geometry"/>
                </mxCell>
                <mxCell id="4" value="Client" style="shape=umlLifeline;perimeter=lifelinePerimeter;whiteSpace=wrap;html=1;container=1;collapsible=0;recursiveResize=0;outlineConnect=0;" vertex="1" parent="1">
                    <mxGeometry x="190" y="70" width="100" height="300" as="geometry"/>
                </mxCell>
                <mxCell id="5" value="" style="html=1;points=[];perimeter=orthogonalPerimeter;" vertex="1" parent="4">
                    <mxGeometry x="45" y="90" width="10" height="120" as="geometry"/>
                </mxCell>
                <mxCell id="6" style="edgeStyle=none;html=1;" edge="1" parent="1" source="5" target="2">
                    <mxGeometry relative="1" as="geometry">
                        <Array as="points">
                            <mxPoint x="470" y="180"/>
                        </Array>
                    </mxGeometry>
                </mxCell>
                <mxCell id="7" value="Basic Auth: email + psw" style="text;html=1;align=center;verticalAlign=middle;resizable=0;points=[];autosize=1;strokeColor=none;fillColor=none;" vertex="1" parent="1">
                    <mxGeometry x="320" y="150" width="150" height="30" as="geometry"/>
                </mxCell>
                <mxCell id="9" value="validate creds&lt;br&gt;generate tokens" style="text;html=1;align=center;verticalAlign=middle;resizable=0;points=[];autosize=1;strokeColor=none;fillColor=none;" vertex="1" parent="1">
                    <mxGeometry x="585" y="200" width="110" height="40" as="geometry"/>
                </mxCell>
                <mxCell id="10" style="edgeStyle=none;html=1;" edge="1" parent="1" source="3" target="4">
                    <mxGeometry relative="1" as="geometry">
                        <Array as="points">
                            <mxPoint x="430" y="270"/>
                        </Array>
                    </mxGeometry>
                </mxCell>
                <mxCell id="11" value="200, access token + refresh token" style="text;html=1;align=center;verticalAlign=middle;resizable=0;points=[];autosize=1;strokeColor=none;fillColor=none;" vertex="1" parent="1">
                    <mxGeometry x="295" y="235" width="200" height="30" as="geometry"/>
                </mxCell>
                <mxCell id="12" value="LOG IN" style="text;html=1;align=center;verticalAlign=middle;resizable=0;points=[];autosize=1;strokeColor=none;fillColor=none;" vertex="1" parent="1">
                    <mxGeometry x="360" width="60" height="30" as="geometry"/>
                </mxCell>
                <mxCell id="13" value="USAGE" style="text;html=1;align=center;verticalAlign=middle;resizable=0;points=[];autosize=1;strokeColor=none;fillColor=none;" vertex="1" parent="1">
                    <mxGeometry x="355" y="440" width="70" height="30" as="geometry"/>
                </mxCell>
                <mxCell id="14" value="Service" style="shape=umlLifeline;perimeter=lifelinePerimeter;whiteSpace=wrap;html=1;container=1;collapsible=0;recursiveResize=0;outlineConnect=0;" vertex="1" parent="1">
                    <mxGeometry x="510" y="470" width="100" height="920" as="geometry"/>
                </mxCell>
                <mxCell id="15" value="" style="html=1;points=[];perimeter=orthogonalPerimeter;fillColor=#808080;" vertex="1" parent="14">
                    <mxGeometry x="45" y="90" width="10" height="320" as="geometry"/>
                </mxCell>
                <mxCell id="26" value="Tocken is valid" style="text;html=1;align=center;verticalAlign=middle;resizable=0;points=[];autosize=1;strokeColor=none;fillColor=none;" vertex="1" parent="14">
                    <mxGeometry x="-55" y="230" width="100" height="30" as="geometry"/>
                </mxCell>
                <mxCell id="33" value="Token is invalid" style="text;html=1;align=center;verticalAlign=middle;resizable=0;points=[];autosize=1;strokeColor=none;fillColor=none;" vertex="1" parent="14">
                    <mxGeometry x="-55" y="300" width="100" height="30" as="geometry"/>
                </mxCell>
                <mxCell id="16" value="Client" style="shape=umlLifeline;perimeter=lifelinePerimeter;whiteSpace=wrap;html=1;container=1;collapsible=0;recursiveResize=0;outlineConnect=0;" vertex="1" parent="1">
                    <mxGeometry x="190" y="470" width="100" height="920" as="geometry"/>
                </mxCell>
                <mxCell id="17" value="" style="html=1;points=[];perimeter=orthogonalPerimeter;" vertex="1" parent="16">
                    <mxGeometry x="45" y="80" width="10" height="670" as="geometry"/>
                </mxCell>
                <mxCell id="18" style="edgeStyle=none;html=1;" edge="1" parent="1" source="17" target="14">
                    <mxGeometry relative="1" as="geometry">
                        <Array as="points">
                            <mxPoint x="500" y="570"/>
                        </Array>
                    </mxGeometry>
                </mxCell>
                <mxCell id="19" value="Operation + access token" style="text;html=1;align=center;verticalAlign=middle;resizable=0;points=[];autosize=1;strokeColor=none;fillColor=none;" vertex="1" parent="1">
                    <mxGeometry x="315" y="540" width="160" height="30" as="geometry"/>
                </mxCell>
                <mxCell id="21" value="validate access token" style="text;html=1;align=center;verticalAlign=middle;resizable=0;points=[];autosize=1;strokeColor=none;fillColor=none;" vertex="1" parent="1">
                    <mxGeometry x="610" y="990" width="140" height="30" as="geometry"/>
                </mxCell>
                <mxCell id="24" value="" style="endArrow=classic;html=1;" edge="1" parent="1">
                    <mxGeometry width="50" height="50" relative="1" as="geometry">
                        <mxPoint x="570" y="990" as="sourcePoint"/>
                        <mxPoint x="570" y="1030" as="targetPoint"/>
                        <Array as="points">
                            <mxPoint x="610" y="990"/>
                            <mxPoint x="610" y="1030"/>
                        </Array>
                    </mxGeometry>
                </mxCell>
                <mxCell id="31" style="edgeStyle=none;html=1;" edge="1" parent="1" source="15" target="16">
                    <mxGeometry relative="1" as="geometry">
                        <Array as="points">
                            <mxPoint x="410" y="730"/>
                        </Array>
                    </mxGeometry>
                </mxCell>
                <mxCell id="32" value="200" style="text;html=1;align=center;verticalAlign=middle;resizable=0;points=[];autosize=1;strokeColor=none;fillColor=none;" vertex="1" parent="1">
                    <mxGeometry x="370" y="700" width="40" height="30" as="geometry"/>
                </mxCell>
                <mxCell id="34" style="edgeStyle=none;html=1;entryX=-0.2;entryY=0.366;entryDx=0;entryDy=0;entryPerimeter=0;" edge="1" parent="1" source="15" target="17">
                    <mxGeometry relative="1" as="geometry">
                        <mxPoint x="300" y="790" as="targetPoint"/>
                    </mxGeometry>
                </mxCell>
                <mxCell id="35" value="401" style="text;html=1;align=center;verticalAlign=middle;resizable=0;points=[];autosize=1;strokeColor=none;fillColor=none;" vertex="1" parent="1">
                    <mxGeometry x="370" y="1180" width="40" height="30" as="geometry"/>
                </mxCell>
                <mxCell id="36" style="edgeStyle=none;html=1;entryX=0.1;entryY=0.439;entryDx=0;entryDy=0;entryPerimeter=0;" edge="1" parent="1" source="15" target="17">
                    <mxGeometry relative="1" as="geometry"/>
                </mxCell>
                <mxCell id="37" value="401" style="text;html=1;align=center;verticalAlign=middle;resizable=0;points=[];autosize=1;strokeColor=none;fillColor=none;" vertex="1" parent="1">
                    <mxGeometry x="370" y="820" width="40" height="30" as="geometry"/>
                </mxCell>
                <mxCell id="38" value="Token is inspired" style="text;html=1;align=center;verticalAlign=middle;resizable=0;points=[];autosize=1;strokeColor=none;fillColor=none;" vertex="1" parent="1">
                    <mxGeometry x="440" y="820" width="110" height="30" as="geometry"/>
                </mxCell>
                <mxCell id="39" value="" style="endArrow=classic;html=1;" edge="1" parent="1">
                    <mxGeometry width="50" height="50" relative="1" as="geometry">
                        <mxPoint x="170" y="790" as="sourcePoint"/>
                        <mxPoint x="170" y="190" as="targetPoint"/>
                        <Array as="points">
                            <mxPoint x="130" y="790"/>
                            <mxPoint x="130" y="190"/>
                        </Array>
                    </mxGeometry>
                </mxCell>
                <mxCell id="42" style="edgeStyle=none;html=1;" edge="1" parent="1" source="17" target="14">
                    <mxGeometry relative="1" as="geometry">
                        <mxPoint x="490" y="960" as="targetPoint"/>
                        <Array as="points">
                            <mxPoint x="280" y="960"/>
                        </Array>
                    </mxGeometry>
                </mxCell>
                <mxCell id="46" style="edgeStyle=none;html=1;entryX=0.1;entryY=0.74;entryDx=0;entryDy=0;entryPerimeter=0;" edge="1" parent="1" source="43" target="17">
                    <mxGeometry relative="1" as="geometry"/>
                </mxCell>
                <mxCell id="49" style="edgeStyle=none;html=1;entryX=-0.2;entryY=0.839;entryDx=0;entryDy=0;entryPerimeter=0;" edge="1" parent="1" source="43" target="17">
                    <mxGeometry relative="1" as="geometry"/>
                </mxCell>
                <mxCell id="50" style="edgeStyle=none;html=1;entryX=-0.2;entryY=0.975;entryDx=0;entryDy=0;entryPerimeter=0;" edge="1" parent="1" source="43" target="17">
                    <mxGeometry relative="1" as="geometry"/>
                </mxCell>
                <mxCell id="43" value="" style="html=1;points=[];perimeter=orthogonalPerimeter;fillColor=#808080;" vertex="1" parent="1">
                    <mxGeometry x="555" y="910" width="10" height="320" as="geometry"/>
                </mxCell>
                <mxCell id="44" value="Refresh call + refresh token" style="text;html=1;align=center;verticalAlign=middle;resizable=0;points=[];autosize=1;strokeColor=none;fillColor=none;" vertex="1" parent="1">
                    <mxGeometry x="315" y="930" width="170" height="30" as="geometry"/>
                </mxCell>
                <mxCell id="45" value="200 + new access token" style="text;html=1;align=center;verticalAlign=middle;resizable=0;points=[];autosize=1;strokeColor=none;fillColor=none;" vertex="1" parent="1">
                    <mxGeometry x="315" y="1020" width="150" height="30" as="geometry"/>
                </mxCell>
                <mxCell id="47" value="Token is invalid" style="text;html=1;align=center;verticalAlign=middle;resizable=0;points=[];autosize=1;strokeColor=none;fillColor=none;" vertex="1" parent="1">
                    <mxGeometry x="455" y="1090" width="100" height="30" as="geometry"/>
                </mxCell>
                <mxCell id="48" value="Token is inspired" style="text;html=1;align=center;verticalAlign=middle;resizable=0;points=[];autosize=1;strokeColor=none;fillColor=none;" vertex="1" parent="1">
                    <mxGeometry x="445" y="1180" width="110" height="30" as="geometry"/>
                </mxCell>
                <mxCell id="51" value="401" style="text;html=1;align=center;verticalAlign=middle;resizable=0;points=[];autosize=1;strokeColor=none;fillColor=none;" vertex="1" parent="1">
                    <mxGeometry x="370" y="770" width="40" height="30" as="geometry"/>
                </mxCell>
                <mxCell id="52" value="401" style="text;html=1;align=center;verticalAlign=middle;resizable=0;points=[];autosize=1;strokeColor=none;fillColor=none;" vertex="1" parent="1">
                    <mxGeometry x="370" y="1080" width="40" height="30" as="geometry"/>
                </mxCell>
                <mxCell id="53" value="" style="endArrow=classic;html=1;" edge="1" parent="1">
                    <mxGeometry width="50" height="50" relative="1" as="geometry">
                        <mxPoint x="170" y="830" as="sourcePoint"/>
                        <mxPoint x="170" y="960" as="targetPoint"/>
                        <Array as="points">
                            <mxPoint x="150" y="830"/>
                            <mxPoint x="150" y="960"/>
                        </Array>
                    </mxGeometry>
                </mxCell>
                <mxCell id="54" value="" style="endArrow=classic;html=1;" edge="1" parent="1">
                    <mxGeometry width="50" height="50" relative="1" as="geometry">
                        <mxPoint x="170" y="1050" as="sourcePoint"/>
                        <mxPoint x="170" y="570" as="targetPoint"/>
                        <Array as="points">
                            <mxPoint x="100" y="1050"/>
                            <mxPoint x="100" y="570"/>
                        </Array>
                    </mxGeometry>
                </mxCell>
                <mxCell id="55" value="" style="endArrow=none;html=1;" edge="1" parent="1">
                    <mxGeometry width="50" height="50" relative="1" as="geometry">
                        <mxPoint x="170" y="1110" as="sourcePoint"/>
                        <mxPoint x="130" y="750" as="targetPoint"/>
                        <Array as="points">
                            <mxPoint x="130" y="1110"/>
                        </Array>
                    </mxGeometry>
                </mxCell>
                <mxCell id="56" value="" style="endArrow=none;html=1;" edge="1" parent="1">
                    <mxGeometry width="50" height="50" relative="1" as="geometry">
                        <mxPoint x="170" y="1200" as="sourcePoint"/>
                        <mxPoint x="130" y="1070" as="targetPoint"/>
                        <Array as="points">
                            <mxPoint x="130" y="1200"/>
                        </Array>
                    </mxGeometry>
                </mxCell>
            </root>
        </mxGraphModel>
    </diagram>
</mxfile>